<svg xmlns="http://www.w3.org/2000/svg" width="237.54999999999998" height="35" viewBox="0 0 237.54999999999998 35"><rect class="svg__rect" x="0" y="0" width="98.97" height="35" fill="#3C9AD5"/><rect class="svg__rect" x="96.97" y="0" width="140.57999999999998" height="35" fill="#8FC965"/><path class="svg__text" d="M17.33 22L14.22 22L14.22 13.47L17.14 13.47Q18.59 13.47 19.34 14.05Q20.10 14.63 20.10 15.78L20.10 15.78Q20.10 16.36 19.78 16.83Q19.47 17.30 18.86 17.56L18.86 17.56Q19.55 17.75 19.93 18.26Q20.31 18.78 20.31 19.51L20.31 19.51Q20.31 20.71 19.53 21.36Q18.76 22 17.33 22L17.33 22ZM15.70 18.15L15.70 20.82L17.35 20.82Q18.04 20.82 18.44 20.47Q18.83 20.13 18.83 19.51L18.83 19.51Q18.83 18.18 17.47 18.15L17.47 18.15L15.70 18.15ZM15.70 14.66L15.70 17.06L17.15 17.06Q17.84 17.06 18.23 16.75Q18.62 16.43 18.62 15.86L18.62 15.86Q18.62 15.23 18.26 14.95Q17.90 14.66 17.14 14.66L17.14 14.66L15.70 14.66ZM24.64 19.16L24.64 19.16L24.64 13.47L26.12 13.47L26.12 19.18Q26.12 20.03 26.55 20.48Q26.98 20.93 27.83 20.93L27.83 20.93Q29.54 20.93 29.54 19.13L29.54 19.13L29.54 13.47L31.02 13.47L31.02 19.17Q31.02 20.53 30.15 21.32Q29.28 22.12 27.83 22.12L27.83 22.12Q26.36 22.12 25.50 21.33Q24.64 20.55 24.64 19.16ZM37.15 22L35.67 22L35.67 13.47L37.15 13.47L37.15 22ZM47.32 22L41.96 22L41.96 13.47L43.44 13.47L43.44 20.82L47.32 20.82L47.32 22ZM53.90 22L51.44 22L51.44 13.47L53.96 13.47Q55.09 13.47 55.97 13.97Q56.84 14.48 57.32 15.40Q57.81 16.33 57.81 17.52L57.81 17.52L57.81 17.95Q57.81 19.16 57.32 20.08Q56.84 21.00 55.94 21.50Q55.05 22 53.90 22L53.90 22ZM52.92 14.66L52.92 20.82L53.89 20.82Q55.06 20.82 55.68 20.09Q56.31 19.36 56.32 17.99L56.32 17.99L56.32 17.52Q56.32 16.13 55.71 15.40Q55.11 14.66 53.96 14.66L53.96 14.66L52.92 14.66ZM71.36 22L68.25 22L68.25 13.47L71.17 13.47Q72.62 13.47 73.37 14.05Q74.13 14.63 74.13 15.78L74.13 15.78Q74.13 16.36 73.81 16.83Q73.50 17.30 72.89 17.56L72.89 17.56Q73.58 17.75 73.96 18.26Q74.33 18.78 74.33 19.51L74.33 19.51Q74.33 20.71 73.56 21.36Q72.79 22 71.36 22L71.36 22ZM69.73 18.15L69.73 20.82L71.38 20.82Q72.07 20.82 72.47 20.47Q72.86 20.13 72.86 19.51L72.86 19.51Q72.86 18.18 71.50 18.15L71.50 18.15L69.73 18.15ZM69.73 14.66L69.73 17.06L71.18 17.06Q71.87 17.06 72.26 16.75Q72.65 16.43 72.65 15.86L72.65 15.86Q72.65 15.23 72.29 14.95Q71.93 14.66 71.17 14.66L71.17 14.66L69.73 14.66ZM80.84 18.86L77.98 13.47L79.63 13.47L81.59 17.51L83.55 13.47L85.19 13.47L82.33 18.86L82.33 22L80.84 22L80.84 18.86Z" fill="#FFFFFF"/><path class="svg__text" d="M112.58 22L110.15 22L113.86 13.60L116.20 13.60L119.92 22L117.45 22L116.79 20.37L113.24 20.37L112.58 22ZM115.01 15.93L113.93 18.61L116.09 18.61L115.01 15.93ZM130.46 22L124.07 22L124.07 13.60L126.45 13.60L126.45 20.11L130.46 20.11L130.46 22ZM137.26 22L134.88 22L134.88 13.60L141.47 13.60L141.47 15.44L137.26 15.44L137.26 17.28L140.96 17.28L140.96 19.12L137.26 19.12L137.26 22ZM147.48 22L145.05 22L148.76 13.60L151.11 13.60L154.82 22L152.36 22L151.69 20.37L148.14 20.37L147.48 22ZM149.92 15.93L148.83 18.61L151.00 18.61L149.92 15.93ZM161.36 22L158.98 22L158.98 13.60L161.36 13.60L161.36 22ZM173.64 22L166.11 22L166.11 20.51L170.35 15.48L166.22 15.48L166.22 13.60L173.45 13.60L173.45 15.09L169.22 20.11L173.64 20.11L173.64 22ZM180.52 22L178.16 22L178.16 13.60L180.52 13.60L180.52 17.09L183.77 13.60L186.38 13.60L182.95 17.32L186.56 22L183.80 22L181.40 18.95L180.52 19.90L180.52 22ZM193.05 22L190.67 22L190.67 13.60L193.05 13.60L193.05 16.76L196.29 16.76L196.29 13.60L198.66 13.60L198.66 22L196.29 22L196.29 18.72L193.05 18.72L193.05 22ZM205.24 22L202.82 22L206.53 13.60L208.87 13.60L212.58 22L210.12 22L209.45 20.37L205.90 20.37L205.24 22ZM207.68 15.93L206.60 18.61L208.76 18.61L207.68 15.93ZM219.07 22L216.74 22L216.74 13.60L218.69 13.60L222.40 18.07L222.40 13.60L224.73 13.60L224.73 22L222.78 22L219.07 17.52L219.07 22Z" fill="#000000" x="109.97"/></svg>